HIERARCHY
ROOT Hips
{
	OFFSET 0.00000 0.00000 0.00000
	CHANNELS 6 Xposition Yposition Zposition Zrotation Yrotation Xrotation 
	JOINT LHipJoint
	{
		OFFSET 0 0 0
		CHANNELS 3 Zrotation Yrotation Xrotation
		JOINT LeftHip
		{
			OFFSET 1.44361 -1.63093 0.70831
			CHANNELS 3 Zrotation Yrotation Xrotation
			JOINT LeftKnee
			{
				OFFSET 2.20103 -6.04728 0.00000
				CHANNELS 3 Zrotation Yrotation Xrotation
				JOINT LeftAnkle
				{
					OFFSET 2.54154 -6.98283 0.00000
					CHANNELS 3 Zrotation Yrotation Xrotation
					JOINT LeftToe
					{
						OFFSET 0.05971 -0.16406 1.77582
						CHANNELS 3 Zrotation Yrotation Xrotation
						End Site
						{
							OFFSET 0.00000 -0.00000 0.90832
						}
					}
				}
			}
		}
	}
	JOINT RHipJoint
	{
		OFFSET 0 0 0
		CHANNELS 3 Zrotation Yrotation Xrotation
		JOINT RightHip
		{
			OFFSET -1.65838 -1.63093 0.70830
			CHANNELS 3 Zrotation Yrotation Xrotation
			JOINT RightKnee
			{
				OFFSET -2.26926 -6.23475 0.00000
				CHANNELS 3 Zrotation Yrotation Xrotation
				JOINT RightAnkle
				{
					OFFSET -2.34808 -6.45129 0.00000
					CHANNELS 3 Zrotation Yrotation Xrotation
					JOINT RightToe
					{
						OFFSET -0.18633 -0.51195 1.68539
						CHANNELS 3 Zrotation Yrotation Xrotation
						End Site
						{
							OFFSET -0.00000 -0.00000 0.88927
						}
					}
				}
			}
		}
	}
	JOINT lowerback
	{
		OFFSET 0 0 0
		CHANNELS 3 Zrotation Yrotation Xrotation
		JOINT Chest
		{
			OFFSET -0.10393 2.01691 0.06920
			CHANNELS 3 Zrotation Yrotation Xrotation
			JOINT Chest2
			{
				OFFSET 0.04092 2.01302 -0.05283
				CHANNELS 3 Zrotation Yrotation Xrotation
				JOINT lowerneck
				{
					OFFSET 0 0 0
					CHANNELS 3 Zrotation Yrotation Xrotation
					JOINT Neck
					{
						OFFSET -0.02870 1.58978 -0.03113
						CHANNELS 3 Zrotation Yrotation Xrotation
						JOINT Head
						{
							OFFSET 0.11532 1.54326 -0.29195
							CHANNELS 3 Zrotation Yrotation Xrotation
							End Site
							{
								OFFSET 0.04056 1.59999 -0.09535
							}
						}
					}
				}
				JOINT LeftCollar
				{
					OFFSET 0 0 0
					CHANNELS 3 Zrotation Yrotation Xrotation
					JOINT LeftShoulder
					{
						OFFSET 3.30641 1.15764 0.01104
CHANNELS 3 Zrotation Xrotation Yrotation
						JOINT LeftElbow
						{
OFFSET 0 -4.632080 0.000000
CHANNELS 3 Zrotation Xrotation Yrotation
							JOINT LeftWrist
							{
OFFSET 0 -3.419240 -0.000000
CHANNELS 3 Zrotation Xrotation Yrotation
								JOINT lhand
								{
									OFFSET 0 0 0
CHANNELS 3 Zrotation Xrotation Yrotation
									JOINT LFingers
									{
OFFSET 0 -0.625370 -0.000000
CHANNELS 3 Zrotation Xrotation Yrotation
										End Site
										{
OFFSET 0 -0.504190 -0.000000
										}
									}
								}
								JOINT LThumb
								{
OFFSET 0 0.000000 0.000000
CHANNELS 3 Zrotation Xrotation Yrotation
									End Site
									{
OFFSET 0 -0.511890 0.511890
									}
								}
							}
						}
					}
				}
				JOINT RightCollar
				{
					OFFSET 0 0 0
					CHANNELS 3 Zrotation Yrotation Xrotation
					JOINT RightShoulder
					{
						OFFSET -3.78081 1.02180 -0.16609
CHANNELS 3 Zrotation Xrotation Yrotation
						JOINT RightElbow
						{
OFFSET 0 -4.406400 -0.000000
CHANNELS 3 Zrotation Xrotation Yrotation
							JOINT RightWrist
							{
OFFSET 0 -3.446750 0.000000
CHANNELS 3 Zrotation Xrotation Yrotation
								JOINT rhand
								{
									OFFSET 0 0 0
CHANNELS 3 Zrotation Xrotation Yrotation
									JOINT RFingers
									{
OFFSET 0 -0.513670 -0.000000
CHANNELS 3 Zrotation Xrotation Yrotation
										End Site
										{
OFFSET 0 -0.414140 -0.000000
										}
									}
								}
								JOINT RThumb
								{
OFFSET 0 0.000000 0.000000
CHANNELS 3 Zrotation Xrotation Yrotation
									End Site
									{
OFFSET 0 -0.420460 0.420460
									}
								}
							}
						}
					}
				}
			}
		}
	}
}
MOTION
Frames: 5
Frame Time: 0.008333333333333333
10.954129 15.767430 11.246968 -1.970970 -75.139587 26.832041 0.000000 0.000000 0.000000 -4.435461 -12.070510 -51.953394 4.729023 13.071981 39.638512 0.731168 3.626645 -17.867452 12.143620 -18.450650 -66.443176 0.000000 0.000000 0.000000 -13.639205 16.323509 -6.872306 -0.168985 -2.648515 7.301717 6.434277 -40.356641 -10.089803 -1.198958 -6.934707 19.527283 -12.889521 -1.355103 9.877906 -0.039027 -3.128432 3.012885 7.547789 -1.628605 -1.656788 -5.711610 -12.321481 2.760065 15.727231 -15.717568 -14.455261 6.021524 -8.593273 -2.954489 0.000000 0.000000 0.000000 -0.518440 -18.211693 -81.588030 106.332028 -58.967182 74.094842 61.101263 -20.694164 20.945681 0.000000 0.000000 0.000000 -7.125000 0.000000 0.000000 19.010869 -6.592841 22.263767 0.000000 0.000000 0.000000 -9.867781 4.744011 -29.540234 -61.572891 -56.714455 -35.652932 -16.071758 -33.657005 22.135467 0.000000 0.000000 0.000000 7.125000 0.000000 0.000000 13.140697 52.448942 -2.442254
10.946878 15.767527 11.238168 -1.704820 -75.250618 26.599477 0.000000 0.000000 0.000000 -4.505715 -12.014299 -51.982427 4.740188 13.085089 39.687789 0.727072 3.670726 -17.849782 12.122944 -18.442096 -66.377903 0.000000 0.000000 0.000000 -13.772425 16.241311 -6.971086 -0.168791 -2.647063 7.297634 6.354005 -40.334508 -8.942808 -0.960710 -6.196171 17.368656 -13.053841 -1.431561 9.996513 0.020857 -3.259629 3.047090 7.721114 -1.697612 -1.641638 -5.793653 -12.886326 2.578358 16.137132 -16.480060 -14.168362 6.094316 -8.981794 -2.709805 0.000000 0.000000 0.000000 -0.402624 -18.071986 -81.233369 106.783180 -58.907971 74.481276 61.063619 -20.618166 20.885991 0.000000 0.000000 0.000000 -7.125000 0.000000 0.000000 19.008223 -6.478602 22.226417 0.000000 0.000000 0.000000 -10.105801 4.585208 -29.541652 -61.346859 -56.658092 -35.464058 -15.710512 -33.810205 22.028898 0.000000 0.000000 0.000000 7.125000 0.000000 0.000000 13.451020 52.280110 -2.446180
10.939563 15.767412 11.230047 -1.432967 -75.370129 26.348128 0.000000 0.000000 0.000000 -4.585658 -11.944032 -51.998611 4.751246 13.098048 39.736516 0.725286 3.703210 -17.850070 12.103073 -18.433859 -66.315239 0.000000 0.000000 0.000000 -13.905241 16.140518 -7.066177 -0.168618 -2.645738 7.293891 6.243075 -40.263780 -7.681513 -0.703083 -5.346918 14.903893 -13.234635 -1.513002 10.124088 0.095329 -3.400048 3.080150 7.920857 -1.771219 -1.627930 -6.049955 -13.401176 2.326664 16.662753 -17.180600 -13.802570 6.211294 -9.332957 -2.408808 0.000000 0.000000 0.000000 -0.326539 -17.924944 -80.863314 107.193667 -58.852852 74.832727 61.047665 -20.485177 20.764751 0.000000 0.000000 0.000000 -7.125000 0.000000 0.000000 19.035005 -6.291703 22.206028 0.000000 0.000000 0.000000 -10.383702 4.428547 -29.501853 -61.149132 -56.608387 -35.298931 -15.439119 -33.974641 21.939164 0.000000 0.000000 0.000000 7.125000 0.000000 0.000000 13.679100 52.144184 -2.443301
10.933074 15.766987 11.223268 -1.322217 -75.479014 26.256644 0.000000 0.000000 0.000000 -4.595599 -11.898991 -52.023204 4.765554 13.114824 39.799737 0.725977 3.750242 -17.885694 12.091818 -18.429183 -66.279657 0.000000 0.000000 0.000000 -13.987658 16.127885 -7.126293 -0.169219 -2.650191 7.306345 6.152522 -40.066718 -7.420110 -0.628328 -5.068618 14.105099 -13.369465 -1.631791 10.243822 0.185689 -3.584727 3.090255 8.116576 -1.864687 -1.623766 -6.494701 -13.669498 2.208577 17.327914 -17.541240 -13.635951 6.420920 -9.523894 -2.187203 0.000000 0.000000 0.000000 -0.248701 -17.752521 -80.410980 107.608693 -58.794792 75.187737 61.114042 -20.573595 20.714958 0.000000 0.000000 0.000000 -7.125000 0.000000 0.000000 19.084743 -6.268898 22.264152 0.000000 0.000000 0.000000 -10.688943 4.282719 -29.356303 -61.029042 -56.577923 -35.198698 -15.259137 -34.117773 22.176433 0.000000 0.000000 0.000000 7.125000 0.000000 0.000000 13.958251 52.347074 -2.566394
10.926672 15.766481 11.216552 -1.241521 -75.585963 26.198926 0.000000 0.000000 0.000000 -4.592830 -11.859367 -52.045600 4.778001 13.129410 39.854722 0.725928 3.807498 -17.919559 12.081116 -18.424728 -66.245789 0.000000 0.000000 0.000000 -14.059630 16.132199 -7.179478 -0.169754 -2.654142 7.317390 6.074993 -39.871594 -7.337268 -0.587284 -4.906310 13.641590 -13.484461 -1.751479 10.352469 0.266129 -3.767503 3.096482 8.289809 -1.956852 -1.619768 -6.980564 -13.890054 2.177914 18.024436 -17.834312 -13.555140 6.659400 -9.686990 -2.003852 0.000000 0.000000 0.000000 -0.144903 -17.575020 -79.959271 108.038508 -58.733809 75.555282 61.166248 -20.688965 20.691688 0.000000 0.000000 0.000000 -7.125000 0.000000 0.000000 19.119242 -6.273935 22.310655 0.000000 0.000000 0.000000 -10.965930 4.141376 -29.218495 -60.919439 -56.550022 -35.107238 -15.109473 -34.225312 22.457290 0.000000 0.000000 0.000000 7.125000 0.000000 0.000000 14.227319 52.598087 -2.704944
